<svg height="504pt" viewBox="0 -38 504 504" width="504pt" xmlns="http://www.w3.org/2000/svg"><path d="m16.015625 203.878906h231.96875l16 24h-263.984375zm0 0" fill="#8cc152"/><path d="m24 227.878906h239.984375v24l-.015625 151.992188c0 13.199218-10.800781 24-24 24h-215.953125c-13.199219 0-24-10.800782-24-24l-.015625-151.992188v-24zm0 0" fill="#a0d468"/><path d="m132 335.871094c62.542969 0 79.753906-82.382813 79.921875-83.214844.421875-2.167969-.96875-4.265625-3.144531-4.703125-2.128906-.457031-4.265625.957031-4.707032 3.136719-.160156.773437-16.09375 76.789062-72.078124 76.789062-56.082032 0-71.921876-76.015625-72.082032-76.78125-.4375-2.175781-2.652344-3.570312-4.703125-3.144531-2.167969.429687-3.574219 2.535156-3.144531 4.703125.167969.832031 17.378906 83.214844 79.9375 83.214844zm0 0" fill="#f5f7fa"/><path d="m48.03125 399.097656h167.9375c2.214844 0 4-1.792968 4-4 0-2.210937-1.785156-4-4-4h-167.9375c-2.214844 0-4 1.789063-4 4 0 2.207032 1.785156 4 4 4zm0 0" fill="#8cc152"/><path d="m504 107.871094v296.007812c0 13.199219-10.800781 24-24 24h-268.03125c-13.199219 0-24-10.800781-24-24v-296.007812zm0 0" fill="#ed5565"/><path d="m239.945312 399.097656h216.007813c2.199219 0 4-1.792968 4-4 0-2.210937-1.800781-4-4-4h-216.007813c-2.203124 0-4 1.789063-4 4 0 2.207032 1.796876 4 4 4zm0 0" fill="#da4453"/><path d="m187.96875 107.871094h316.03125l-16.015625-24.007813h-284zm0 0" fill="#da4453"/><path d="m419.984375 151.871094c.113281 0 .214844-.007813.34375-.015625 2.183594-.175781 3.832031-2.121094 3.640625-4.320313-.503906-6.023437-13.03125-147.535156-75.984375-147.535156s-75.480469 141.511719-75.984375 147.535156c-.183594 2.199219 1.457031 4.144532 3.65625 4.320313 2.230469.175781 4.144531-1.449219 4.3125-3.648438.128906-1.40625 12.375-140.207031 68.015625-140.207031 55.671875 0 67.902344 138.808594 68.015625 140.207031.167969 2.089844 1.921875 3.664063 3.984375 3.664063zm0 0" fill="#656d78"/><g fill="#f5f7fa"><path d="m275.9375 347.792969c-1.027344 0-2.050781-.394531-2.832031-1.167969-1.5625-1.5625-1.5625-4.097656 0-5.65625l144-143.984375c1.558593-1.558594 4.09375-1.558594 5.65625 0 1.558593 1.558594 1.558593 4.085937 0 5.65625l-144 143.992187c-.777344.773438-1.800781 1.160157-2.824219 1.160157zm0 0"/><path d="m391.953125 347.792969c-17.648437 0-32-14.351563-32-32 0-17.648438 14.351563-32 32-32s32 14.351562 32 32c0 17.648437-14.351563 32-32 32zm0-56c-13.234375 0-24 10.765625-24 24 0 13.230469 10.765625 24 24 24 13.230469 0 24-10.769531 24-24 0-13.234375-10.769531-24-24-24zm0 0"/><path d="m303.953125 259.792969c-17.648437 0-32-14.351563-32-32 0-17.640625 14.351563-31.984375 32-31.984375s32 14.34375 32 31.984375c0 17.648437-14.351563 32-32 32zm0-55.984375c-13.234375 0-24 10.757812-24 23.992187 0 13.230469 10.765625 24 24 24 13.230469 0 24-10.769531 24-24 0-13.234375-10.769531-23.992187-24-23.992187zm0 0"/></g></svg>