<?xml version="1.0" encoding="utf-8"?>
<!-- Generator: Adobe Illustrator 17.0.0, SVG Export Plug-In . SVG Version: 6.00 Build 0)  -->
<!DOCTYPE svg PUBLIC "-//W3C//DTD SVG 1.1//EN" "http://www.w3.org/Graphics/SVG/1.1/DTD/svg11.dtd">
<svg version="1.1" id="Layer_1" xmlns="http://www.w3.org/2000/svg" xmlns:xlink="http://www.w3.org/1999/xlink" x="0px" y="0px"
	 width="877px" height="853px" viewBox="-460.5 -460.125 977 953" enable-background="new -395.5 -410.125 877 853"
	 xml:space="preserve">
<g id="Ellipse_2">
	<g>
		<path fill="#FEFEFE" d="M-278.65-64.126c42.998,0,77.984,35.834,77.984,79.876s-34.986,79.876-77.984,79.876
			s-77.984-35.834-77.984-79.876S-321.648-64.126-278.65-64.126 M-278.65-100.992c-63.422,0-114.85,52.264-114.85,116.742
			s51.416,116.742,114.85,116.742S-163.8,80.229-163.8,15.75C-163.813-48.729-215.228-100.992-278.65-100.992L-278.65-100.992z"/>
	</g>
</g>
<g id="Ellipse_2_copy">
	<g>
		<path fill="#FEFEFE" d="M42.747-64.126c43.232,0,78.389,35.834,78.389,79.876s-35.17,79.876-78.389,79.876
			S-35.642,59.793-35.642,15.75S-0.484-64.126,42.747-64.126 M42.747-100.992c-63.655,0-115.255,52.264-115.255,116.742
			s51.6,116.742,115.255,116.742S158.003,80.229,158.003,15.75C158.003-48.729,106.403-100.992,42.747-100.992L42.747-100.992z"/>
	</g>
</g>
<g id="Ellipse_2_copy_2">
	<g>
		<path fill="#FEFEFE" d="M364.145-64.126c42.998,0,77.984,35.834,77.984,79.876s-34.986,79.876-77.984,79.876
			s-77.984-35.834-77.984-79.876C286.173-28.293,321.147-64.126,364.145-64.126 M364.145-100.992
			c-63.422,0-114.85,52.264-114.85,116.742s51.416,116.742,114.85,116.742s114.85-52.264,114.85-116.742
			S427.579-100.992,364.145-100.992L364.145-100.992z"/>
	</g>
</g>
</svg>
